<svg width="24" height="31" viewBox="0 0 24 31" fill="none" xmlns="http://www.w3.org/2000/svg">
<g filter="url(#filter0_d_2001_1771)">
<g filter="url(#filter1_i_2001_1771)">
<path d="M21.7727 11.6364H13.8182C13.0949 11.6364 12.4012 11.349 11.8897 10.8376C11.3782 10.3261 11.0909 9.63243 11.0909 8.90911V0.954568C11.0909 0.894291 11.067 0.836483 11.0243 0.793862C10.9817 0.75124 10.9239 0.727295 10.8636 0.727295H5.63636C4.67194 0.727295 3.74702 1.11041 3.06507 1.79236C2.38312 2.47431 2 3.39923 2 4.36366V22.5455C2 23.5099 2.38312 24.4348 3.06507 25.1168C3.74702 25.7987 4.67194 26.1818 5.63636 26.1818H18.3636C19.3281 26.1818 20.253 25.7987 20.9349 25.1168C21.6169 24.4348 22 23.5099 22 22.5455V11.8637C22 11.8034 21.9761 11.7456 21.9334 11.7029C21.8908 11.6603 21.833 11.6364 21.7727 11.6364Z" fill="url(#paint0_linear_2001_1771)"/>
</g>
<path d="M21.274 9.62595L13.1029 1.45492C13.087 1.43912 13.0668 1.42838 13.0449 1.42403C13.0229 1.41969 13.0001 1.42194 12.9794 1.4305C12.9587 1.43906 12.941 1.45355 12.9285 1.47215C12.916 1.49075 12.9093 1.51263 12.9092 1.53503V8.9106C12.9092 9.15171 13.005 9.38294 13.1754 9.55343C13.3459 9.72392 13.5772 9.8197 13.8183 9.8197H21.1938C21.2162 9.8196 21.2381 9.81289 21.2567 9.80039C21.2753 9.7879 21.2898 9.77019 21.2984 9.74948C21.3069 9.72878 21.3092 9.706 21.3048 9.68402C21.3005 9.66204 21.2898 9.64184 21.274 9.62595Z" fill="#DD0616"/>
</g>
<defs>
<filter id="filter0_d_2001_1771" x="0" y="0.727295" width="24" height="29.4546" filterUnits="userSpaceOnUse" color-interpolation-filters="sRGB">
<feFlood flood-opacity="0" result="BackgroundImageFix"/>
<feColorMatrix in="SourceAlpha" type="matrix" values="0 0 0 0 0 0 0 0 0 0 0 0 0 0 0 0 0 0 127 0" result="hardAlpha"/>
<feOffset dy="2"/>
<feGaussianBlur stdDeviation="1"/>
<feComposite in2="hardAlpha" operator="out"/>
<feColorMatrix type="matrix" values="0 0 0 0 0.713726 0 0 0 0 0.0862745 0 0 0 0 0.0941176 0 0 0 0.25 0"/>
<feBlend mode="normal" in2="BackgroundImageFix" result="effect1_dropShadow_2001_1771"/>
<feBlend mode="normal" in="SourceGraphic" in2="effect1_dropShadow_2001_1771" result="shape"/>
</filter>
<filter id="filter1_i_2001_1771" x="2" y="0.727295" width="20" height="26.4546" filterUnits="userSpaceOnUse" color-interpolation-filters="sRGB">
<feFlood flood-opacity="0" result="BackgroundImageFix"/>
<feBlend mode="normal" in="SourceGraphic" in2="BackgroundImageFix" result="shape"/>
<feColorMatrix in="SourceAlpha" type="matrix" values="0 0 0 0 0 0 0 0 0 0 0 0 0 0 0 0 0 0 127 0" result="hardAlpha"/>
<feOffset dy="1"/>
<feGaussianBlur stdDeviation="2"/>
<feComposite in2="hardAlpha" operator="arithmetic" k2="-1" k3="1"/>
<feColorMatrix type="matrix" values="0 0 0 0 0.768627 0 0 0 0 0.12549 0 0 0 0 0.207843 0 0 0 1 0"/>
<feBlend mode="normal" in2="shape" result="effect1_innerShadow_2001_1771"/>
</filter>
<linearGradient id="paint0_linear_2001_1771" x1="12" y1="0.727295" x2="12" y2="26.1818" gradientUnits="userSpaceOnUse">
<stop offset="0.354464" stop-color="#FF0013"/>
<stop offset="1" stop-color="#C42035"/>
</linearGradient>
</defs>
</svg>
