<svg width="20" height="27" viewBox="0 0 20 27" fill="none" xmlns="http://www.w3.org/2000/svg">
<path d="M19.7727 11.6364H11.8182C11.0949 11.6364 10.4012 11.349 9.88971 10.8376C9.37825 10.3261 9.09091 9.63243 9.09091 8.90911V0.954568C9.09091 0.894291 9.06697 0.836483 9.02434 0.793862C8.98172 0.75124 8.92391 0.727295 8.86364 0.727295H3.63636C2.67194 0.727295 1.74702 1.11041 1.06507 1.79236C0.383116 2.47431 0 3.39923 0 4.36366V22.5455C0 23.5099 0.383116 24.4348 1.06507 25.1168C1.74702 25.7987 2.67194 26.1818 3.63636 26.1818H16.3636C17.3281 26.1818 18.253 25.7987 18.9349 25.1168C19.6169 24.4348 20 23.5099 20 22.5455V11.8637C20 11.8034 19.9761 11.7456 19.9334 11.7029C19.8908 11.6603 19.833 11.6364 19.7727 11.6364Z" fill="#9C0005"/>
<path d="M19.2739 9.62595L11.1028 1.45492C11.0869 1.43912 11.0667 1.42838 11.0448 1.42403C11.0228 1.41969 11 1.42194 10.9793 1.4305C10.9586 1.43906 10.9409 1.45355 10.9284 1.47215C10.9159 1.49075 10.9092 1.51263 10.9091 1.53503V8.9106C10.9091 9.15171 11.0049 9.38294 11.1754 9.55343C11.3458 9.72392 11.5771 9.8197 11.8182 9.8197H19.1937C19.2162 9.8196 19.238 9.81289 19.2566 9.80039C19.2752 9.7879 19.2897 9.77019 19.2983 9.74948C19.3068 9.72878 19.3091 9.706 19.3048 9.68402C19.3004 9.66204 19.2897 9.64184 19.2739 9.62595Z" fill="#9C0005"/>
</svg>
