<svg width="27" height="26" viewBox="0 0 27 26" fill="none" xmlns="http://www.w3.org/2000/svg">
<path d="M0.849013 8.90255L12.327 0.82543C13.0282 0.332026 13.9658 0.340404 14.658 0.84626L25.68 8.90079C26.1954 9.27738 26.5 9.87731 26.5 10.5156V23.5C26.5 24.6046 25.6046 25.5 24.5 25.5H18C16.8954 25.5 16 24.6046 16 23.5V18.5C16 17.9477 15.5523 17.5 15 17.5H11.5C10.9477 17.5 10.5 17.9477 10.5 18.5V23.5C10.5 24.6046 9.60457 25.5 8.5 25.5H2C0.895431 25.5 0 24.6046 0 23.5V10.5382C0 9.88728 0.316724 9.27712 0.849013 8.90255Z" fill="#9C0005"/>
</svg>
