<svg width="24" height="25" viewBox="0 0 24 25" fill="none" xmlns="http://www.w3.org/2000/svg">
<path d="M11.8209 12.5001C14.7668 12.5001 17.3695 9.72606 17.6245 6.31588C17.7512 4.60271 17.2138 3.00504 16.1111 1.81809C15.0201 0.645651 13.495 0 11.8209 0C10.1334 0 8.60715 0.641745 7.52399 1.80693C6.42856 2.98495 5.89452 4.58596 6.01729 6.31477C6.26785 9.7255 8.86998 12.5001 11.8209 12.5001Z" fill="#9C0005"/>
<path d="M23.1799 22.7535C22.7089 20.1407 21.2384 17.946 18.9282 16.4058C16.8762 15.038 14.2763 14.2847 11.6072 14.2847C8.93814 14.2847 6.33824 15.038 4.28633 16.4052C1.97605 17.9454 0.505614 20.1402 0.0346286 22.7529C-0.0730729 23.3517 0.073133 23.9438 0.435858 24.3774C0.600379 24.575 0.806953 24.7333 1.0405 24.8409C1.27404 24.9484 1.52866 25.0024 1.78575 24.999H21.4287C21.686 25.0027 21.9408 24.9488 22.1745 24.8414C22.4083 24.7339 22.615 24.5756 22.7797 24.3779C23.1413 23.9443 23.2876 23.3522 23.1799 22.7535Z" fill="#9C0005"/>
</svg>
